<?xml version="1.0" ?>
<svg fill="white" viewBox="0 0 64 64"
  xmlns="http://www.w3.org/2000/svg">
  <title/>
  <g id="Clock">
    <path d="M46.18,51.3514A24.1273,24.1273,0,0,0,56,32a23.8046,23.8046,0,0,0-3.1416-11.8383A9.9858,9.9858,0,1,0,36.6918,8.463a24.2632,24.2632,0,0,0-9.3836,0A9.986,9.986,0,1,0,11.1416,20.1617,23.8046,23.8046,0,0,0,8,32a24.1266,24.1266,0,0,0,9.8209,19.351l-5.235,5.2349a2,2,0,1,0,2.8282,2.8282l5.91-5.91a24.0763,24.0763,0,0,0,21.3513,0l5.91,5.91a2,2,0,0,0,2.8282-2.8282ZM45,8a6.0017,6.0017,0,0,1,5.4053,8.6064c-.34-.4088-.6936-.8032-1.0578-1.1867-.0565-.0594-.1168-.1143-.1739-.1732-.4-.4127-.8156-.8075-1.2428-1.1889-.1243-.111-.2487-.2214-.3752-.33-.49-.4195-.9911-.8256-1.5129-1.2031-.0118-.0085-.0243-.0159-.0361-.0244-.5111-.3684-1.0409-.7091-1.58-1.0354-.1441-.0874-.2893-.1724-.4353-.2566-.5076-.2929-1.0241-.57-1.5532-.8252-.0568-.0274-.1115-.0586-.1686-.0855-.4686-.2211-.9442-.4287-1.428-.6191A6.0042,6.0042,0,0,1,45,8ZM19,8a6.0042,6.0042,0,0,1,4.1582,1.6787c-.4852.1909-.962.3992-1.4319.621-.0579.0273-.1131.0589-.1707.0867-.5286.2547-1.0446.5319-1.5516.8247-.1451.0837-.2892.168-.4323.2548-.5432.329-1.0774.6723-1.5923,1.044l-.0226.0154c-.5228.3782-1.0245.7851-1.5157,1.2055-.1252.1072-.2482.2164-.3713.3263-.4292.3831-.8469.78-1.2488,1.1947-.0552.057-.1137.11-.1683.1677-.3642.3835-.7183.7781-1.058,1.1869A6.0017,6.0017,0,0,1,19,8Zm2.9678,41.3125A20.1209,20.1209,0,0,1,12,32a19.8079,19.8079,0,0,1,3.2607-10.92l.0088-.0147c.0118-.0166.0225-.0332.0342-.0508a19.7456,19.7456,0,0,1,11.5137-8.33c.0146-.0039.03-.0078.0449-.0127l.042-.0117a20.0693,20.0693,0,0,1,10.1973.0019l.0322.0088c.0156.0049.0322.0088.0488.0137a19.7453,19.7453,0,0,1,11.5137,8.33l.0322.0479.0108.0176A19.8079,19.8079,0,0,1,52,32,20.0145,20.0145,0,0,1,21.9678,49.3125Z"/>
    <path d="M32,18a2,2,0,0,0-2,2V31.1719l-5.4141,5.414a2,2,0,1,0,2.8282,2.8282l6-6A2,2,0,0,0,34,32V20A2,2,0,0,0,32,18Z"/>
  </g>
</svg>